<svg width="33" height="33" viewBox="0 0 33 33" fill="none" xmlns="http://www.w3.org/2000/svg">
  <path d="M16.2047 18.6743C18.8645 18.6743 21.0208 16.518 21.0208 13.8582C21.0208 11.1984 18.8645 9.04218 16.2047 9.04218C13.5449 9.04218 11.3887 11.1984 11.3887 13.8582C11.3887 16.518 13.5449 18.6743 16.2047 18.6743Z" fill="#4A2895" stroke="#4A2895" stroke-width="0.972283" stroke-miterlimit="10"></path>
  <path d="M6.56934 28.3063C6.56934 22.988 10.883 18.6743 16.2014 18.6743C21.5198 18.6743 25.8335 22.988 25.8335 28.3063H6.56934Z" stroke="#CFBAFE" stroke-width="0.972283" stroke-linecap="round" stroke-linejoin="round"></path>
  <path d="M16.2047 28.3096C22.5894 28.3096 27.7652 23.1338 27.7652 16.7492C27.7652 10.3645 22.5894 5.18872 16.2047 5.18872C9.82007 5.18872 4.64429 10.3645 4.64429 16.7492C4.64429 23.1338 9.82007 28.3096 16.2047 28.3096Z" stroke="#CFBAFE" stroke-width="0.972283" stroke-linecap="round" stroke-linejoin="round"></path>
</svg>
