<svg width="32" height="32" viewBox="0 0 32 32" fill="none" xmlns="http://www.w3.org/2000/svg">
  <path d="M23.5831 24.5463C26.669 24.5463 29.1707 22.0446 29.1707 18.9587C29.1707 15.8728 26.669 13.3712 23.5831 13.3712C20.4972 13.3712 17.9956 15.8728 17.9956 18.9587C17.9956 22.0446 20.4972 24.5463 23.5831 24.5463Z" fill="#4A2895" stroke="#4A2895" stroke-width="0.940133" stroke-miterlimit="10"></path>
  <path d="M15.6705 24.5462C20.3002 24.5462 24.0533 20.7931 24.0533 16.1634C24.0533 11.5336 20.3002 7.78052 15.6705 7.78052C11.0407 7.78052 7.2876 11.5336 7.2876 16.1634C7.2876 20.7931 11.0407 24.5462 15.6705 24.5462Z" stroke="#CFBAFE" stroke-width="0.940133" stroke-linecap="round" stroke-linejoin="round"></path>
  <path d="M11.2706 23.3022C12.5335 22.2774 13.342 20.7137 13.342 18.9587C13.342 15.872 10.8413 13.3712 7.75452 13.3712C4.66775 13.3712 2.16699 15.872 2.16699 18.9587C2.16699 22.0455 4.66775 24.5463 7.75452 24.5463H23.5832" stroke="#CFBAFE" stroke-width="0.940133" stroke-linecap="round" stroke-linejoin="round"></path>
</svg>
