<svg width="32" height="33" viewBox="0 0 32 33" fill="none" xmlns="http://www.w3.org/2000/svg">
  <path d="M12.4566 26.5889C16.0487 26.5889 18.9607 23.6769 18.9607 20.0847C18.9607 16.4926 16.0487 13.5806 12.4566 13.5806C8.86441 13.5806 5.95239 16.4926 5.95239 20.0847C5.95239 23.6769 8.86441 26.5889 12.4566 26.5889Z" fill="#4A2895" stroke="#4A2895" stroke-width="0.951365" stroke-miterlimit="10"></path>
  <path d="M19.2525 19.793C22.8446 19.793 25.7566 16.881 25.7566 13.2888C25.7566 9.69668 22.8446 6.78467 19.2525 6.78467C15.6603 6.78467 12.7483 9.69668 12.7483 13.2888C12.7483 16.881 15.6603 19.793 19.2525 19.793Z" stroke="#CFBAFE" stroke-width="0.951365" stroke-linecap="round" stroke-linejoin="round"></path>
  <path d="M15.8562 28.0001C22.1035 28.0001 27.1679 22.9357 27.1679 16.6884C27.1679 10.4411 22.1035 5.37665 15.8562 5.37665C9.60887 5.37665 4.54443 10.4411 4.54443 16.6884C4.54443 22.9357 9.60887 28.0001 15.8562 28.0001Z" stroke="#CFBAFE" stroke-width="0.951365" stroke-linecap="round" stroke-linejoin="round"></path>
</svg>
