<svg width="32" height="33" viewBox="0 0 32 33" fill="none" xmlns="http://www.w3.org/2000/svg">
  <path d="M21.5105 21.9549C24.6333 21.9549 27.1648 19.4234 27.1648 16.3006C27.1648 13.1779 24.6333 10.6464 21.5105 10.6464C18.3877 10.6464 15.8562 13.1779 15.8562 16.3006C15.8562 19.4234 18.3877 21.9549 21.5105 21.9549Z" fill="#4A2895" stroke="#4A2895" stroke-width="0.951365" stroke-miterlimit="10"></path>
  <path d="M15.8562 27.6124C22.1035 27.6124 27.1679 22.548 27.1679 16.3007C27.1679 10.0534 22.1035 4.98895 15.8562 4.98895C9.60887 4.98895 4.54443 10.0534 4.54443 16.3007C4.54443 22.548 9.60887 27.6124 15.8562 27.6124Z" stroke="#CFBAFE" stroke-width="0.951365" stroke-linecap="round" stroke-linejoin="round"></path>
  <path d="M18.6817 24.7837C23.3668 24.7837 27.1647 20.9857 27.1647 16.3007C27.1647 11.6156 23.3668 7.81766 18.6817 7.81766C13.9967 7.81766 10.1987 11.6156 10.1987 16.3007C10.1987 20.9857 13.9967 24.7837 18.6817 24.7837Z" stroke="#CFBAFE" stroke-width="0.951365" stroke-linecap="round" stroke-linejoin="round"></path>
</svg>
