<svg width="33" height="34" viewBox="0 0 33 34" fill="none" xmlns="http://www.w3.org/2000/svg">
  <path d="M16.4074 22.8907C19.6385 22.8907 22.2577 20.2714 22.2577 17.0404C22.2577 13.8094 19.6385 11.1901 16.4074 11.1901C13.1764 11.1901 10.5571 13.8094 10.5571 17.0404C10.5571 20.2714 13.1764 22.8907 16.4074 22.8907Z" fill="#4A2895" stroke="#4A2895" stroke-width="0.984346" stroke-miterlimit="10"></path>
  <path d="M22.2578 17.0372C25.4888 17.0372 28.1081 14.4179 28.1081 11.1869C28.1081 7.95584 25.4888 5.33658 22.2578 5.33658C19.0267 5.33658 16.4075 7.95584 16.4075 11.1869C16.4075 14.4179 19.0267 17.0372 22.2578 17.0372Z" stroke="#CFBAFE" stroke-width="0.984346" stroke-linecap="round" stroke-linejoin="round"></path>
  <path d="M22.2578 28.7411C25.4888 28.7411 28.1081 26.1218 28.1081 22.8908C28.1081 19.6597 25.4888 17.0405 22.2578 17.0405C19.0267 17.0405 16.4075 19.6597 16.4075 22.8908C16.4075 26.1218 19.0267 28.7411 22.2578 28.7411Z" stroke="#CFBAFE" stroke-width="0.984346" stroke-linecap="round" stroke-linejoin="round"></path>
  <path d="M10.5539 17.0372C13.7849 17.0372 16.4042 14.4179 16.4042 11.1869C16.4042 7.95584 13.7849 5.33658 10.5539 5.33658C7.32288 5.33658 4.70361 7.95584 4.70361 11.1869C4.70361 14.4179 7.32288 17.0372 10.5539 17.0372Z" stroke="#CFBAFE" stroke-width="0.984346" stroke-linecap="round" stroke-linejoin="round"></path>
  <path d="M10.5539 28.7411C13.7849 28.7411 16.4042 26.1218 16.4042 22.8908C16.4042 19.6597 13.7849 17.0405 10.5539 17.0405C7.32288 17.0405 4.70361 19.6597 4.70361 22.8908C4.70361 26.1218 7.32288 28.7411 10.5539 28.7411Z" stroke="#CFBAFE" stroke-width="0.984346" stroke-linecap="round" stroke-linejoin="round"></path>
</svg>  
