<svg width="32" height="33" viewBox="0 0 32 33" fill="none" xmlns="http://www.w3.org/2000/svg">
  <path d="M20.7039 21.4161C23.3236 21.4161 25.4473 19.2923 25.4473 16.6726C25.4473 14.0529 23.3236 11.9292 20.7039 11.9292C18.0842 11.9292 15.9604 14.0529 15.9604 16.6726C15.9604 19.2923 18.0842 21.4161 20.7039 21.4161Z" fill="#4A2895" stroke="#4A2895" stroke-width="0.957627" stroke-miterlimit="10"></path>
  <path d="M20.7039 26.1595C25.9434 26.1595 30.1908 21.9121 30.1908 16.6726C30.1908 11.4332 25.9434 7.18573 20.7039 7.18573C15.4645 7.18573 11.217 11.4332 11.217 16.6726C11.217 21.9121 15.4645 26.1595 20.7039 26.1595Z" stroke="#CFBAFE" stroke-width="0.957627" stroke-linecap="round" stroke-linejoin="round"></path>
  <path d="M18.8683 7.18573H3.56543C2.55174 7.18573 1.72998 8.00749 1.72998 9.02118V24.3241C1.72998 25.3378 2.55174 26.1595 3.56543 26.1595H18.8683C19.882 26.1595 20.7038 25.3378 20.7038 24.3241V9.02118C20.7038 8.00749 19.882 7.18573 18.8683 7.18573Z" stroke="#CFBAFE" stroke-width="0.957627" stroke-linecap="round" stroke-linejoin="round"></path>
</svg>
