<svg width="32" height="32" viewBox="0 0 32 32" fill="none" xmlns="http://www.w3.org/2000/svg">
  <path d="M20.2734 21.5104C23.3962 21.5104 25.9277 18.9789 25.9277 15.8561C25.9277 12.7333 23.3962 10.2018 20.2734 10.2018C17.1506 10.2018 14.6191 12.7333 14.6191 15.8561C14.6191 18.9789 17.1506 21.5104 20.2734 21.5104Z" fill="#4A2895" stroke="#4A2895" stroke-width="0.951365" stroke-miterlimit="10"></path>
  <path d="M6.86578 6.43123H1.97894C1.27837 6.43123 0.710449 6.99915 0.710449 7.69972V24.0124C0.710449 24.713 1.27837 25.2809 1.97894 25.2809H6.86578C7.56635 25.2809 8.13427 24.713 8.13427 24.0124V7.69972C8.13427 6.99915 7.56635 6.43123 6.86578 6.43123Z" stroke="#CFBAFE" stroke-width="0.951365" stroke-linecap="round" stroke-linejoin="round"></path>
  <path d="M27.5578 6.43123L15.485 18.504L12.9924 16.0083L22.5695 6.43123H27.5578Z" stroke="#CFBAFE" stroke-width="0.951365" stroke-linecap="round" stroke-linejoin="round"></path>
  <path d="M27.2535 15.8497L20.0421 23.0611L17.5464 20.5653L22.2652 15.8497H27.2535Z" stroke="#CFBAFE" stroke-width="0.951365" stroke-linecap="round" stroke-linejoin="round"></path>
  <path d="M27.2535 25.2809L20.0421 18.0696L17.5464 20.5653L22.2652 25.2809H27.2535Z" stroke="#CFBAFE" stroke-width="0.951365" stroke-linecap="round" stroke-linejoin="round"></path>
  <path d="M19.7251 25.2809H12.0856C11.3848 25.2809 10.8171 24.7133 10.8171 24.0124V7.69972C10.8171 6.99888 11.3848 6.43123 12.0856 6.43123H20.0295" stroke="#CFBAFE" stroke-width="0.951365" stroke-linecap="round" stroke-linejoin="round"></path>
  <path d="M29.7332 6.43123C30.434 6.43123 31.0016 6.99888 31.0016 7.69972V24.0124C31.0016 24.7133 30.434 25.2809 29.7332 25.2809" stroke="#CFBAFE" stroke-width="0.951365" stroke-linecap="round" stroke-linejoin="round"></path>
</svg>
