<svg width="32" height="32" viewBox="0 0 32 32" fill="none" xmlns="http://www.w3.org/2000/svg">
  <path d="M5.3587 20.4824C7.93057 20.4824 10.0155 18.3975 10.0155 15.8256C10.0155 13.2537 7.93057 11.1688 5.3587 11.1688C2.78682 11.1688 0.701904 13.2537 0.701904 15.8256C0.701904 18.3975 2.78682 20.4824 5.3587 20.4824Z" fill="#4A2895" stroke="#4A2895" stroke-width="0.940133" stroke-miterlimit="10"></path>
  <path d="M19.0815 6.7847L4.20547 11.313C2.19045 11.8269 0.701904 13.6508 0.701904 15.8256C0.701904 18.0005 2.19045 19.8243 4.20547 20.3383L19.0815 24.8666" stroke="#CFBAFE" stroke-width="0.940133" stroke-linecap="round" stroke-linejoin="round"></path>
  <path d="M21.3221 25.1392C26.4659 25.1392 30.6357 20.9694 30.6357 15.8256C30.6357 10.6819 26.4659 6.51205 21.3221 6.51205C16.1784 6.51205 12.0085 10.6819 12.0085 15.8256C12.0085 20.9694 16.1784 25.1392 21.3221 25.1392Z" stroke="#CFBAFE" stroke-width="0.940133" stroke-linecap="round" stroke-linejoin="round"></path>
</svg>
