<svg viewBox="0 0 845 1137" fill="none" xmlns="http://www.w3.org/2000/svg">
<path opacity="0.25" d="M924.644 -267.773L924.644 97.8346C924.644 161.218 873.228 212.601 809.805 212.601L117.228 212.601C53.8045 212.601 2.38937 161.218 2.38937 97.8345L2.38939 -267.773" stroke="#F0E9D6" stroke-width="4" stroke-linecap="round" stroke-linejoin="round"></path>
<path opacity="0.75" d="M924.644 480.46L924.644 247.404C924.644 57.2397 770.389 -96.919 580.105 -96.919L346.904 -96.919C156.621 -96.919 2.36596 57.2396 2.36595 247.404L2.36594 480.459C2.36593 670.624 156.621 824.782 346.904 824.782L580.105 824.782C770.389 824.782 924.644 670.624 924.644 480.46Z" stroke="#F0E9D6" stroke-width="4" stroke-linecap="round" stroke-linejoin="round"></path>
<path d="M463.505 1134.3C718.185 1134.3 924.644 927.972 924.644 673.451C924.644 418.93 718.185 212.601 463.505 212.601C208.825 212.601 2.36596 418.93 2.36595 673.451C2.36594 927.972 208.825 1134.3 463.505 1134.3Z" stroke="#F0E9D6" stroke-width="4" stroke-linecap="round" stroke-linejoin="round"></path></svg>
