<svg width="40" version="1.1" id="Layer_1" x="0px" y="0px" viewBox="0 0 41 33" style="enable-background:new 0 0 41 33" xml:space="preserve">
<style type="text/css">.st0{fill:#FFFFFF;}</style>
<path class="st0" d="M40.5,3.9C39,4.6,37.4,5,35.8,5.2c1.7-1,3-2.7,3.6-4.6c-1.6,1-3.3,1.6-5.2,2C32.7,1,30.6,0,28.2,0
	c-5.3,0-9.2,5-8,10.2C13.4,9.9,7.3,6.6,3.3,1.5c-2.2,3.7-1.1,8.6,2.5,11.1c-1.3,0-2.6-0.4-3.7-1c-0.1,3.9,2.6,7.5,6.6,8.3
	C7.5,20.2,6.3,20.3,5,20c1,3.3,4.1,5.7,7.7,5.8c-3.4,2.7-7.8,4-12.1,3.5C4.1,31.6,8.4,33,13.1,33c15.2,0,23.8-13.1,23.3-24.8
	C38,7,39.4,5.6,40.5,3.9L40.5,3.9z"></path>
</svg>
