<svg width="40" height="40" viewBox="0 0 40 40" fill="none">
<path d="M0 20C0 16.3733 0.89336 13.0267 2.68 9.96C4.46668 6.89332 6.89336 4.46668 9.96 2.68C13.0267 0.89332 16.3734 0 20 0C23.6267 0 26.9734 0.89332 30.04 2.68C33.1067 4.46668 35.5334 6.89332 37.32 9.96C39.1067 13.0267 40 16.3733 40 20C40 23.6267 39.1067 26.9733 37.32 30.04C35.5334 33.1067 33.1067 35.5333 30.04 37.32C26.9734 39.1067 23.6267 40 20 40C16.3734 40 13.0267 39.1067 9.96 37.32C6.89336 35.5333 4.46668 33.1067 2.68 30.04C0.89336 26.9733 0 23.6267 0 20ZM3.32 20C3.32 24.16 4.72 27.8267 7.52 31C8.8 28.4933 10.8267 26.1067 13.6 23.84C16.3734 21.5733 19.08 20.1467 21.72 19.56C21.32 18.6267 20.9334 17.7867 20.56 17.04C15.9734 18.5067 11.0134 19.24 5.68 19.24C4.64 19.24 3.86668 19.2267 3.36 19.2C3.36 19.3067 3.35336 19.44 3.34 19.6C3.32668 19.76 3.32 19.8933 3.32 20ZM3.84 15.88C4.42668 15.9333 5.29336 15.96 6.44 15.96C10.8934 15.96 15.12 15.36 19.12 14.16C17.0934 10.56 14.8667 7.56 12.44 5.16C10.3334 6.22668 8.52668 7.70668 7.02 9.6C5.51336 11.4933 4.45336 13.5867 3.84 15.88ZM9.8 33.16C12.8134 35.5067 16.2134 36.68 20 36.68C21.9734 36.68 23.9334 36.3067 25.88 35.56C25.3467 31 24.3067 26.5867 22.76 22.32C20.3067 22.8533 17.8334 24.2 15.34 26.36C12.8467 28.52 11 30.7867 9.8 33.16ZM15.92 3.88C18.2667 6.30668 20.44 9.33332 22.44 12.96C26.0667 11.44 28.8 9.50668 30.64 7.16C27.5467 4.6 24 3.32 20 3.32C18.64 3.32 17.28 3.50668 15.92 3.88ZM23.88 15.8C24.28 16.6533 24.7334 17.7333 25.24 19.04C27.2134 18.8533 29.36 18.76 31.68 18.76C33.3334 18.76 34.9734 18.8 36.6 18.88C36.3867 15.2533 35.08 12.0267 32.68 9.2C30.9467 11.7867 28.0134 13.9867 23.88 15.8ZM26.24 21.84C27.6 25.7867 28.52 29.84 29 34C31.1067 32.64 32.8267 30.8933 34.16 28.76C35.4934 26.6267 36.2934 24.32 36.56 21.84C34.6134 21.7067 32.84 21.64 31.24 21.64C29.7734 21.64 28.1067 21.7067 26.24 21.84Z" fill="#FFFEF9">
</path>
</svg>
