<svg width="41" height="40" viewBox="0 0 41 40" fill="none"><path d="M20.4517 3.605C25.7917 3.605 26.425 3.625 28.535 3.72167C33.955 3.96833 36.4867 6.54 36.7333 11.92C36.83 14.0283 36.8483 14.6617 36.8483 20.0017C36.8483 25.3433 36.8283 25.975 36.7333 28.0833C36.485 33.4583 33.96 36.035 28.535 36.2817C26.425 36.3783 25.795 36.3983 20.4517 36.3983C15.1117 36.3983 14.4783 36.3783 12.37 36.2817C6.93666 36.0333 4.41833 33.45 4.17166 28.0817C4.07499 25.9733 4.05499 25.3417 4.05499 20C4.05499 14.66 4.07666 14.0283 4.17166 11.9183C4.41999 6.54 6.94499 3.96667 12.37 3.72C14.48 3.625 15.1117 3.605 20.4517 3.605V3.605ZM20.4517 0C15.02 0 14.34 0.0233333 12.2067 0.12C4.94333 0.453333 0.90666 4.48333 0.573327 11.7533C0.474993 13.8883 0.45166 14.5683 0.45166 20C0.45166 25.4317 0.474993 26.1133 0.57166 28.2467C0.904993 35.51 4.93499 39.5467 12.205 39.88C14.34 39.9767 15.02 40 20.4517 40C25.8833 40 26.565 39.9767 28.6983 39.88C35.955 39.5467 40.0017 35.5167 40.33 28.2467C40.4283 26.1133 40.4517 25.4317 40.4517 20C40.4517 14.5683 40.4283 13.8883 40.3317 11.755C40.005 4.49833 35.97 0.455 28.7 0.121667C26.565 0.0233333 25.8833 0 20.4517 0V0ZM20.4517 9.73C14.78 9.73 10.1817 14.3283 10.1817 20C10.1817 25.6717 14.78 30.2717 20.4517 30.2717C26.1233 30.2717 30.7217 25.6733 30.7217 20C30.7217 14.3283 26.1233 9.73 20.4517 9.73ZM20.4517 26.6667C16.77 26.6667 13.785 23.6833 13.785 20C13.785 16.3183 16.77 13.3333 20.4517 13.3333C24.1333 13.3333 27.1183 16.3183 27.1183 20C27.1183 23.6833 24.1333 26.6667 20.4517 26.6667ZM31.1283 6.925C29.8017 6.925 28.7267 8 28.7267 9.325C28.7267 10.65 29.8017 11.725 31.1283 11.725C32.4533 11.725 33.5267 10.65 33.5267 9.325C33.5267 8 32.4533 6.925 31.1283 6.925Z" fill="#FFFEF9"></path></svg>
