<svg width="41" height="40" viewBox="0 0 41 40" fill="none">
<path d="M32.2148 0H8.88143C4.27976 0 0.548096 3.73167 0.548096 8.33333V31.6667C0.548096 36.2683 4.27976 40 8.88143 40H32.2148C36.8181 40 40.5481 36.2683 40.5481 31.6667V8.33333C40.5481 3.73167 36.8181 0 32.2148 0ZM13.8814 31.6667H8.88143V13.3333H13.8814V31.6667ZM11.3814 11.22C9.77143 11.22 8.46476 9.90333 8.46476 8.28C8.46476 6.65667 9.77143 5.34 11.3814 5.34C12.9914 5.34 14.2981 6.65667 14.2981 8.28C14.2981 9.90333 12.9931 11.22 11.3814 11.22ZM33.8814 31.6667H28.8814V22.3267C28.8814 16.7133 22.2148 17.1383 22.2148 22.3267V31.6667H17.2148V13.3333H22.2148V16.275C24.5414 11.965 33.8814 11.6467 33.8814 20.4017V31.6667Z" fill="#FFFEF9">
</path>
</svg>
